# xmcd
#
# Track frame offsets: 
#        150
#        16805
#        31115
#        47365
#        61597
#        85025
#        104977
#        119075
#        134705
#        153492
#        169180
#        190307
#
# Disc length: 2759 seconds
#
# Revision: 0
# Processed by: cddbd v1.4PL0 Copyright (c) Steve Scherf et al.
# Submitted via: ExactAudioCopy v0.90b4
#
DISCID=9d0ac50c
DTITLE=Various Artist - Lustige Lieder aus der Sesamstrasse  Folge 2
DYEAR=1900
DGENRE=Blues
TTITLE0=Nieslied
TTITLE1=Es gibt so Leute
TTITLE2=Nachbarschaftssong
TTITLE3=Freitag, der 13.
TTITLE4=Orchestersong
TTITLE5=Monatssong
TTITLE6=Die Reise des Zehnmarkscheins
TTITLE7=Frikadellenblues
TTITLE8=Globusreisen
TTITLE9=Namen, Namen, nichts als Namen
TTITLE10=Vor vielen Jahren
TTITLE11=Schlaflied
EXTD=
EXTT0=
EXTT1=
EXTT2=
EXTT3=
EXTT4=
EXTT5=
EXTT6=
EXTT7=
EXTT8=
EXTT9=
EXTT10=
EXTT11=
PLAYORDER=
